<?xml version="1.0" standalone="no"?>
<!DOCTYPE svg PUBLIC "-//W3C//DTD SVG 20010904//EN"
 "http://www.w3.org/TR/2001/REC-SVG-20010904/DTD/svg10.dtd">
<svg version="1.0" xmlns="http://www.w3.org/2000/svg"
 width="768.000000pt" height="424.000000pt" viewBox="0 0 768.000000 424.000000"
 preserveAspectRatio="xMidYMid meet">

<g transform="translate(0.000000,424.000000) scale(0.100000,-0.100000)"
fill="#fff" stroke="none">
<path d="M2966 3549 c-680 -196 -911 -259 -950 -258 l-51 1 43 15 c24 8 40 19
35 23 -12 11 -133 50 -155 50 -10 0 -36 -11 -58 -25 -22 -14 -46 -25 -54 -25
-7 0 -68 23 -134 51 l-121 51 -468 -136 c-258 -75 -479 -136 -492 -136 -27 0
-183 -55 -216 -76 -11 -7 -39 -17 -62 -24 -31 -8 -44 -17 -48 -33 -3 -12 -4
-434 -3 -937 l3 -915 105 -33 c304 -96 417 -131 773 -236 214 -64 396 -116
406 -116 9 0 68 22 130 50 62 27 119 50 127 50 8 0 32 -12 54 -26 l40 -27 62
23 c106 39 109 41 68 56 l-35 12 50 1 c37 1 279 -64 958 -260 l907 -260 908
260 c670 193 920 261 957 261 l50 -1 -54 -21 c-59 -23 -57 -27 22 -54 48 -16
48 -16 87 10 22 14 46 26 54 26 8 0 65 -23 127 -51 79 -34 123 -49 144 -46 37
5 1043 305 1175 351 l95 33 3 930 c2 746 0 933 -11 941 -26 22 -281 112 -316
112 -14 0 -236 61 -494 136 l-468 136 -121 -51 c-66 -28 -127 -51 -134 -51 -8
0 -36 13 -62 30 l-49 30 -62 -21 c-35 -12 -59 -25 -54 -29 4 -4 33 -17 63 -28
l55 -21 -51 0 c-53 -1 -61 1 -1284 353 -316 91 -579 166 -585 165 -5 0 -415
-117 -909 -260z m964 182 c47 -17 607 -221 969 -354 63 -23 106 -44 97 -45
-18 -4 -115 23 -681 186 -471 135 -426 125 -487 109 -29 -8 -201 -57 -383
-109 -566 -163 -663 -190 -681 -186 -9 1 34 22 97 45 63 23 294 107 514 188
485 178 500 183 500 184 1 1 25 -8 55 -18z m-2325 -382 c72 -31 75 -33 59 -50
-21 -24 -49 -23 -93 0 -25 13 -43 16 -65 11 -290 -71 -541 -130 -550 -129 -8
0 528 186 572 198 1 1 36 -13 77 -30z m4850 -73 c154 -52 275 -95 269 -95 -9
-1 -260 58 -550 129 -22 5 -40 2 -65 -11 -44 -23 -72 -24 -93 0 -16 17 -13 19
56 49 40 17 80 29 88 26 9 -2 142 -46 295 -98z m-2642 -258 c20 -26 20 -30 5
-61 -11 -22 -32 -42 -64 -58 -61 -31 -94 -78 -94 -132 0 -37 6 -46 81 -117 63
-61 80 -83 77 -101 -2 -20 -11 -26 -48 -33 -67 -13 -707 -19 -695 -7 6 6 81
12 175 13 107 2 158 6 145 12 -11 5 -36 24 -55 42 -35 33 -37 33 -90 25 -30
-5 -68 -14 -83 -20 -17 -7 -26 -7 -22 -1 7 12 100 40 131 40 20 0 22 4 18 38
-10 74 62 136 159 137 42 0 52 -4 78 -33 33 -36 37 -76 13 -110 -8 -12 -26
-22 -39 -22 -24 0 -65 41 -65 66 0 22 20 27 39 10 24 -22 31 -20 31 9 0 59
-131 74 -177 20 -23 -26 -31 -78 -15 -101 4 -6 31 -17 61 -24 31 -7 67 -25 87
-42 31 -27 40 -29 138 -35 127 -7 131 -2 60 78 -112 126 -100 216 38 282 92
44 115 67 102 105 -7 21 -16 27 -39 27 -24 0 -31 -5 -33 -23 -3 -20 0 -23 17
-17 24 7 29 -12 6 -21 -20 -8 -45 13 -45 37 0 52 69 63 103 17z m171 16 c30
-30 8 -84 -29 -70 -21 8 -19 24 3 22 11 -1 17 6 17 19 0 15 -7 20 -29 20 -37
0 -53 -25 -41 -61 8 -21 29 -37 82 -63 88 -44 121 -74 129 -119 10 -50 -11
-104 -60 -159 -60 -67 -63 -87 -11 -91 l40 -4 -40 -14 c-47 -16 -215 -19 -215
-3 0 5 13 15 29 20 18 6 32 20 35 34 3 13 37 51 76 85 38 35 72 72 76 84 21
64 -15 129 -91 166 -40 20 -75 60 -75 88 0 5 9 21 21 36 23 29 60 34 83 10z
m-144 -126 c0 -53 -23 -105 -67 -150 -30 -30 -44 -52 -40 -62 8 -20 3 -20 -17
0 -32 32 -20 70 44 139 33 35 60 71 60 80 0 8 5 15 10 15 6 0 10 -10 10 -22z
m50 7 c0 -9 27 -45 60 -80 64 -69 76 -107 44 -139 -20 -20 -25 -20 -17 0 4 10
-10 32 -40 62 -27 29 -50 63 -56 87 -14 50 -14 85 -1 85 6 0 10 -7 10 -15z
m463 -142 c42 -21 69 -70 61 -115 -5 -34 -4 -37 23 -41 l28 -4 -31 -2 c-17 0
-39 -10 -49 -21 -22 -24 -43 -27 -24 -3 13 15 10 16 -31 9 -55 -8 -35 10 22
19 43 8 53 28 43 81 -13 70 -129 101 -180 50 -15 -15 -22 -31 -19 -40 8 -20
18 -20 34 -1 16 19 26 19 34 -1 9 -23 -19 -62 -50 -70 -54 -14 -85 62 -48 115
35 50 117 60 187 24z m-522 -93 l-6 -85 -24 44 c-25 48 -24 82 5 127 26 38 33
13 25 -86z m79 70 c25 -50 25 -61 -2 -113 l-23 -42 -6 85 c-6 76 -4 110 7 110
2 0 13 -18 24 -40z m-995 -67 c-16 -3 -36 -9 -42 -15 -15 -12 -17 -66 -3 -88
7 -11 2 -20 -18 -36 -26 -22 -28 -22 -62 -4 -45 23 -73 54 -68 77 6 34 44 27
93 -18 l46 -43 -7 30 c-17 64 8 105 60 103 l31 -2 -30 -4z m60 -66 c-6 -14
-32 -16 -53 -3 -17 10 -15 26 3 26 8 0 15 -4 15 -10 0 -5 7 -10 16 -10 10 0
14 5 10 15 -15 38 -16 48 -2 23 9 -15 13 -33 11 -41z m1975 -59 l-43 -38 129
0 c87 0 124 -3 114 -10 -8 -5 -94 -10 -190 -10 l-175 0 100 65 c82 53 101 61
104 47 2 -10 -13 -31 -39 -54z m-2185 -48 c-28 -12 -95 -12 -95 0 0 6 25 10
58 9 41 0 51 -3 37 -9z m-566 -154 c12 -11 21 -31 21 -47 0 -24 -6 -30 -32
-37 -39 -11 -48 -7 -48 19 0 18 -8 19 -125 19 l-125 0 0 -40 0 -40 130 0 c197
0 221 -17 208 -151 -8 -82 -13 -84 -208 -87 l-170 -3 -25 25 c-26 26 -34 74
-12 80 57 18 67 17 67 -9 l0 -26 133 3 132 3 3 43 3 42 -144 0 c-173 0 -187 6
-194 87 -7 68 11 119 45 132 15 6 91 9 173 8 129 -2 150 -4 168 -21z m3660 0
c25 -23 28 -71 5 -80 -34 -13 -64 -7 -64 14 0 20 -5 20 -122 18 l-123 -3 -3
-37 -3 -38 131 0 c197 0 221 -17 208 -151 -8 -83 -11 -84 -219 -84 -167 0
-182 1 -195 19 -17 24 -18 75 -1 80 57 18 67 17 67 -9 l0 -26 133 3 132 3 3
43 3 42 -144 0 c-173 0 -187 6 -194 87 -7 68 11 119 45 132 15 6 91 9 173 8
129 -2 150 -4 168 -21z m-3149 -59 c23 -12 25 -18 25 -87 0 -69 -2 -75 -25
-87 -16 -8 -67 -13 -137 -13 l-113 0 0 -60 0 -60 -40 0 -40 0 0 153 c0 85 3
157 7 160 12 13 297 7 323 -6z m481 -16 c23 -28 26 -117 5 -146 -7 -10 -31
-21 -56 -24 l-42 -6 69 -55 68 -55 -53 -3 c-52 -3 -54 -2 -121 57 -52 47 -75
61 -99 61 l-32 0 0 -60 0 -60 -40 0 -40 0 0 161 0 160 161 -3 c155 -3 161 -4
180 -27z m219 -131 l0 -160 -40 0 -40 0 0 160 0 160 40 0 40 0 0 -160z m316
59 l129 -101 5 98 5 99 35 0 35 0 3 -157 3 -158 -30 0 c-22 0 -61 25 -160 104
l-131 105 0 -105 0 -105 -36 3 -35 3 0 153 c0 83 1 154 1 157 0 3 11 5 23 5
15 0 73 -38 153 -101z m692 69 l3 -28 -80 0 -81 0 0 -130 0 -130 -40 0 -40 0
0 130 0 130 -75 0 c-72 0 -75 1 -75 23 0 13 3 27 7 31 4 3 90 5 192 4 l186 -3
3 -27z m432 2 l0 -30 -130 0 -130 0 0 -35 0 -35 76 0 75 0 -3 -27 c-3 -26 -4
-26 -75 -24 l-73 2 0 -40 0 -41 130 0 130 0 0 -30 0 -30 -170 0 -170 0 0 160
0 160 170 0 170 0 0 -30z m427 19 c37 -14 43 -25 43 -89 0 -73 -18 -98 -72
-102 l-42 -3 72 -54 c40 -30 72 -56 72 -58 0 -2 -25 -3 -55 -3 -54 0 -57 2
-120 60 -54 50 -70 60 -100 60 l-35 0 0 -60 0 -60 -40 0 -40 0 0 160 0 160
144 0 c80 0 157 -5 173 -11z m268 -409 c13 0 16 -3 9 -10 -7 -7 -571 -10
-1700 -10 -929 0 -1697 0 -1706 0 -23 0 -23 17 -1 22 12 2 2709 1 3398 -2z
m-3913 -191 l3 -30 40 30 c22 17 50 31 63 31 26 0 30 -16 5 -24 -10 -3 -31
-16 -46 -29 l-29 -22 58 -40 c55 -38 57 -40 31 -43 -19 -2 -43 8 -77 33 l-50
37 0 -36 c0 -29 -4 -36 -20 -36 -18 0 -20 7 -20 80 0 72 2 80 19 80 15 0 21
-8 23 -31z m228 -50 c0 -71 -2 -80 -17 -77 -15 3 -19 16 -21 67 -3 73 1 91 23
91 12 0 15 -15 15 -81z m167 31 c34 -27 64 -50 67 -50 2 0 4 21 3 47 -1 38 3
49 16 51 15 3 17 -7 17 -77 0 -53 -4 -81 -11 -81 -6 0 -39 23 -74 50 -35 28
-66 50 -70 50 -3 0 -5 -21 -4 -47 3 -39 0 -48 -14 -51 -15 -3 -17 6 -17 77 0
59 3 81 13 81 7 0 40 -22 74 -50z m362 31 c9 -15 7 -20 -9 -24 -11 -3 -20 -1
-20 4 0 5 -27 9 -61 9 l-60 0 3 -47 3 -48 55 0 c42 0 55 3 55 15 0 9 -11 16
-27 18 -48 6 -31 22 22 22 47 0 50 -2 50 -26 0 -55 -14 -64 -98 -64 -47 0 -83
5 -90 12 -7 7 -12 37 -12 68 0 31 5 61 12 68 7 7 43 12 90 12 66 0 79 -3 87
-19z m416 -61 l0 -75 -83 -3 c-53 -2 -89 1 -98 9 -18 15 -19 120 -2 137 9 9
40 12 98 10 l85 -3 0 -75z m245 65 c0 -12 -14 -15 -65 -15 -58 0 -65 -2 -65
-20 0 -16 7 -20 35 -20 24 0 35 -5 35 -15 0 -10 -11 -15 -35 -15 -32 0 -35 -2
-35 -31 0 -24 -4 -30 -17 -27 -15 3 -18 16 -21 81 l-3 77 86 0 c69 0 85 -3 85
-15z m378 3 c17 -17 16 -123 -2 -137 -9 -8 -45 -11 -98 -9 l-83 3 -3 64 c-2
35 -1 70 2 77 7 18 166 20 184 2z m173 -38 l64 -50 3 50 c2 36 7 50 18 50 11
0 14 -17 14 -80 0 -52 -4 -80 -11 -80 -6 0 -40 23 -75 51 l-64 51 0 -51 c0
-44 -3 -51 -20 -51 -18 0 -20 7 -20 80 0 60 3 80 13 80 7 0 42 -22 78 -50z
m219 -15 l0 -65 60 0 c47 0 60 -3 60 -15 0 -12 -16 -15 -80 -15 l-80 0 0 80
c0 73 2 80 20 80 18 0 20 -7 20 -65z m205 -15 c0 -66 -2 -75 -19 -75 -16 0
-18 8 -18 73 1 39 1 75 1 78 1 3 9 4 19 2 14 -3 17 -15 17 -78z m132 57 c15
-13 45 -36 66 -52 l39 -29 -3 50 c-3 40 0 49 14 52 15 3 17 -6 17 -77 0 -53
-4 -81 -11 -81 -6 0 -39 23 -74 50 -35 28 -64 50 -66 50 -2 0 -4 -21 -4 -47 0
-37 -4 -48 -17 -51 -16 -3 -18 6 -18 77 0 91 7 98 57 58z m381 6 c3 -10 -14
-13 -62 -13 -52 0 -66 -3 -66 -15 0 -10 11 -15 35 -15 24 0 35 -5 35 -15 0
-10 -11 -15 -35 -15 -28 0 -35 -4 -35 -20 0 -18 7 -20 65 -20 51 0 65 -3 65
-15 0 -12 -16 -15 -85 -15 l-85 0 0 80 0 81 82 -3 c54 -2 83 -7 86 -15z m393
1 c10 -13 10 -17 -2 -25 -19 -12 -29 -11 -29 1 0 7 -22 10 -57 8 l-58 -3 0
-45 0 -45 58 -3 c52 -3 57 -1 57 18 0 16 -6 20 -30 20 -16 0 -30 5 -30 10 0 6
23 10 50 10 l50 0 0 -34 c0 -49 -16 -57 -107 -54 l-78 3 -3 64 c-2 35 -1 70 2
77 8 21 159 19 177 -2z m217 -55 c23 -38 42 -74 42 -80 0 -17 -30 -9 -42 11
-10 15 -24 20 -60 20 -37 0 -51 -5 -60 -20 -12 -18 -48 -29 -48 -14 0 7 67
120 83 142 20 26 43 11 85 -59z m163 26 c19 -24 37 -45 40 -45 3 0 20 20 39
45 19 25 42 45 52 45 16 0 18 -9 18 -80 0 -73 -2 -80 -19 -80 -17 0 -20 8 -23
51 l-3 51 -30 -41 c-16 -22 -33 -41 -36 -41 -3 0 -18 18 -35 39 l-29 40 -5
-47 c-3 -30 -10 -47 -19 -47 -10 0 -13 18 -13 73 1 39 1 74 1 77 2 18 34 -2
62 -40z m259 -35 c0 -73 -2 -80 -20 -80 -18 0 -20 7 -20 80 0 73 2 80 20 80
18 0 20 -7 20 -80z m166 29 l64 -51 0 51 c0 44 3 51 20 51 18 0 20 -7 20 -80
0 -58 -4 -80 -13 -80 -7 0 -40 23 -74 50 -34 28 -64 50 -67 50 -3 0 -6 -23 -6
-51 0 -41 -3 -50 -16 -47 -13 2 -16 17 -16 76 1 39 1 74 1 77 2 14 30 0 87
-46z m361 35 c7 -19 -17 -38 -31 -24 -6 6 -34 10 -63 10 l-53 0 0 -50 0 -51
58 3 c43 2 57 7 57 18 0 10 -12 16 -32 18 -52 5 -38 22 17 22 l50 0 0 -39 c0
-26 -5 -41 -16 -45 -28 -11 -150 -6 -162 6 -16 16 -16 135 1 141 6 3 47 6 90
6 62 1 79 -2 84 -15z m-4974 -709 c183 -47 351 -91 374 -97 38 -11 47 -10 84
11 36 20 44 22 65 10 13 -7 24 -16 24 -20 0 -15 -69 -21 -182 -17 -109 4 -122
7 -403 96 -414 132 -412 132 38 17z m5772 79 c-5 -2 -140 -45 -300 -96 -281
-89 -294 -92 -403 -96 -113 -4 -182 2 -182 17 0 4 11 13 24 20 21 12 29 10 65
-10 39 -21 45 -22 89 -10 270 75 758 196 707 175z m-3943 -240 c90 -26 312
-89 493 -142 471 -135 426 -125 488 -109 28 8 201 57 382 109 566 163 663 190
681 186 9 -1 -34 -22 -97 -45 -355 -130 -921 -337 -967 -353 l-52 -19 -93 34
c-356 128 -1030 376 -1036 381 -15 14 60 -2 201 -42z"/>
<path d="M3605 2729 c11 -37 41 -81 76 -114 38 -35 30 -19 -23 48 -21 27 -38
55 -38 62 0 8 -5 17 -11 21 -8 4 -9 -1 -4 -17z"/>
<path d="M3490 2650 c0 -5 6 -10 14 -10 8 0 18 5 21 10 3 6 -3 10 -14 10 -12
0 -21 -4 -21 -10z"/>
<path d="M3349 2586 c8 -9 24 -22 35 -28 29 -16 86 -27 86 -18 0 13 -65 49
-101 57 -31 6 -33 5 -20 -11z"/>
<path d="M4090 2748 c0 -27 -10 -49 -38 -85 -56 -71 -60 -85 -8 -28 49 53 76
119 57 138 -8 8 -11 1 -11 -25z"/>
<path d="M3730 2790 c-29 -41 -20 -49 9 -9 13 17 21 33 18 35 -3 3 -15 -9 -27
-26z"/>
<path d="M3966 2785 c15 -20 29 -33 31 -31 7 7 -36 66 -48 66 -6 0 2 -16 17
-35z"/>
<path d="M4185 2650 c3 -5 13 -10 21 -10 8 0 14 5 14 10 0 6 -9 10 -21 10 -11
0 -17 -4 -14 -10z"/>
<path d="M3793 2704 c-3 -8 -1 -20 5 -26 7 -7 10 -2 9 16 -2 30 -5 32 -14 10z"/>
<path d="M2740 2601 c0 -5 7 -17 16 -26 20 -20 74 -48 73 -38 -1 12 -89 74
-89 64z"/>
<path d="M4920 2569 l-35 -31 31 15 c17 9 36 23 43 31 22 27 -2 17 -39 -15z"/>
<path d="M2460 2210 l0 -41 103 3 102 3 0 35 0 35 -102 3 -103 3 0 -41z"/>
<path d="M2930 2208 l0 -43 101 3 100 3 -3 37 -3 37 -97 3 -98 3 0 -43z"/>
<path d="M5040 2205 l0 -45 86 0 c92 0 124 10 124 40 0 47 -7 50 -111 50 l-99
0 0 -45z"/>
<path d="M2650 1650 l0 -50 60 0 60 0 0 50 0 50 -60 0 -60 0 0 -50z"/>
<path d="M3280 1650 l0 -51 58 3 57 3 3 48 3 47 -60 0 -61 0 0 -50z"/>
<path d="M5066 1665 l-16 -25 35 0 35 0 -16 25 c-9 14 -18 25 -19 25 -1 0 -10
-11 -19 -25z"/>
<path d="M1301 776 c9 -9 195 -76 210 -76 9 0 63 18 120 40 l104 39 -219 1
c-121 0 -217 -2 -215 -4z"/>
<path d="M6049 740 c57 -22 111 -40 120 -40 15 0 201 67 210 76 2 2 -94 4
-215 4 l-219 -1 104 -39z"/>
</g>
</svg>
